<mxfile host="app.diagrams.net" modified="2021-05-28T02:46:52.012Z" agent="5.0 (Macintosh; Intel Mac OS X 10_15_7) AppleWebKit/537.36 (KHTML, like Gecko) Chrome/90.0.4430.212 Safari/537.36" etag="f5mQg8TinerqOKJgXzAU" version="14.7.2" type="github">
  <diagram id="7SOYIh-ocD8_NSdhMeMT" name="Page-1">
    <mxGraphModel dx="1042" dy="1679" grid="1" gridSize="10" guides="1" tooltips="1" connect="1" arrows="1" fold="1" page="1" pageScale="1" pageWidth="827" pageHeight="1169" math="0" shadow="0">
      <root>
        <mxCell id="0" />
        <mxCell id="1" parent="0" />
        <mxCell id="SXORoa-QBr3XHSVtzo8y-6" value="" style="edgeStyle=orthogonalEdgeStyle;rounded=0;orthogonalLoop=1;jettySize=auto;html=1;" parent="1" source="SXORoa-QBr3XHSVtzo8y-2" target="SXORoa-QBr3XHSVtzo8y-5" edge="1">
          <mxGeometry relative="1" as="geometry">
            <Array as="points">
              <mxPoint x="140" y="190" />
              <mxPoint x="140" y="190" />
            </Array>
          </mxGeometry>
        </mxCell>
        <mxCell id="SXORoa-QBr3XHSVtzo8y-2" value="" style="shape=umlActor;verticalLabelPosition=bottom;verticalAlign=top;html=1;outlineConnect=0;" parent="1" vertex="1">
          <mxGeometry x="90" y="160" width="30" height="60" as="geometry" />
        </mxCell>
        <mxCell id="SXORoa-QBr3XHSVtzo8y-10" value="" style="edgeStyle=orthogonalEdgeStyle;rounded=0;orthogonalLoop=1;jettySize=auto;html=1;" parent="1" source="SXORoa-QBr3XHSVtzo8y-5" target="SXORoa-QBr3XHSVtzo8y-9" edge="1">
          <mxGeometry relative="1" as="geometry" />
        </mxCell>
        <mxCell id="SXORoa-QBr3XHSVtzo8y-5" value="创建dataflow" style="rounded=1;whiteSpace=wrap;html=1;" parent="1" vertex="1">
          <mxGeometry x="170" y="175" width="80" height="30" as="geometry" />
        </mxCell>
        <mxCell id="SXORoa-QBr3XHSVtzo8y-15" value="" style="edgeStyle=orthogonalEdgeStyle;rounded=0;orthogonalLoop=1;jettySize=auto;html=1;" parent="1" source="SXORoa-QBr3XHSVtzo8y-7" target="SXORoa-QBr3XHSVtzo8y-14" edge="1">
          <mxGeometry relative="1" as="geometry" />
        </mxCell>
        <mxCell id="SXORoa-QBr3XHSVtzo8y-7" value="数据源配置" style="rounded=1;whiteSpace=wrap;html=1;" parent="1" vertex="1">
          <mxGeometry x="290" y="40" width="70" height="20" as="geometry" />
        </mxCell>
        <mxCell id="SXORoa-QBr3XHSVtzo8y-55" value="" style="edgeStyle=orthogonalEdgeStyle;rounded=0;orthogonalLoop=1;jettySize=auto;html=1;" parent="1" source="SXORoa-QBr3XHSVtzo8y-9" target="SXORoa-QBr3XHSVtzo8y-54" edge="1">
          <mxGeometry relative="1" as="geometry" />
        </mxCell>
        <mxCell id="SXORoa-QBr3XHSVtzo8y-56" value="提交作业" style="edgeLabel;html=1;align=center;verticalAlign=middle;resizable=0;points=[];" parent="SXORoa-QBr3XHSVtzo8y-55" vertex="1" connectable="0">
          <mxGeometry x="-0.2444" y="1" relative="1" as="geometry">
            <mxPoint as="offset" />
          </mxGeometry>
        </mxCell>
        <mxCell id="SXORoa-QBr3XHSVtzo8y-9" value="保存并启动" style="rounded=1;whiteSpace=wrap;html=1;" parent="1" vertex="1">
          <mxGeometry x="170" y="240" width="80" height="30" as="geometry" />
        </mxCell>
        <mxCell id="SXORoa-QBr3XHSVtzo8y-11" value="" style="shape=curlyBracket;whiteSpace=wrap;html=1;rounded=1;size=0.5;" parent="1" vertex="1">
          <mxGeometry x="260" y="50" width="20" height="290" as="geometry" />
        </mxCell>
        <mxCell id="SXORoa-QBr3XHSVtzo8y-17" value="" style="edgeStyle=orthogonalEdgeStyle;rounded=0;orthogonalLoop=1;jettySize=auto;html=1;" parent="1" source="SXORoa-QBr3XHSVtzo8y-14" target="SXORoa-QBr3XHSVtzo8y-16" edge="1">
          <mxGeometry relative="1" as="geometry" />
        </mxCell>
        <mxCell id="SXORoa-QBr3XHSVtzo8y-14" value="算子配置" style="rounded=1;whiteSpace=wrap;html=1;" parent="1" vertex="1">
          <mxGeometry x="290" y="180" width="70" height="20" as="geometry" />
        </mxCell>
        <mxCell id="SXORoa-QBr3XHSVtzo8y-16" value="sink配置" style="rounded=1;whiteSpace=wrap;html=1;" parent="1" vertex="1">
          <mxGeometry x="290" y="330" width="70" height="20" as="geometry" />
        </mxCell>
        <mxCell id="SXORoa-QBr3XHSVtzo8y-19" value="" style="shape=curlyBracket;whiteSpace=wrap;html=1;rounded=1;" parent="1" vertex="1">
          <mxGeometry x="360" y="15" width="20" height="70" as="geometry" />
        </mxCell>
        <mxCell id="SXORoa-QBr3XHSVtzo8y-20" value="mysql" style="rounded=1;whiteSpace=wrap;html=1;" parent="1" vertex="1">
          <mxGeometry x="390" y="10" width="60" height="20" as="geometry" />
        </mxCell>
        <mxCell id="SXORoa-QBr3XHSVtzo8y-23" value="" style="shape=curlyBracket;whiteSpace=wrap;html=1;rounded=1;size=0.5;" parent="1" vertex="1">
          <mxGeometry x="370" y="110" width="10" height="160" as="geometry" />
        </mxCell>
        <mxCell id="SXORoa-QBr3XHSVtzo8y-25" value="kafka" style="rounded=1;whiteSpace=wrap;html=1;" parent="1" vertex="1">
          <mxGeometry x="390" y="40" width="60" height="20" as="geometry" />
        </mxCell>
        <mxCell id="SXORoa-QBr3XHSVtzo8y-26" value="clickhouse" style="rounded=1;whiteSpace=wrap;html=1;" parent="1" vertex="1">
          <mxGeometry x="390" y="70" width="60" height="20" as="geometry" />
        </mxCell>
        <mxCell id="SXORoa-QBr3XHSVtzo8y-27" value="聚合" style="rounded=1;whiteSpace=wrap;html=1;" parent="1" vertex="1">
          <mxGeometry x="390" y="110" width="60" height="20" as="geometry" />
        </mxCell>
        <mxCell id="SXORoa-QBr3XHSVtzo8y-28" value="数据去重" style="rounded=1;whiteSpace=wrap;html=1;" parent="1" vertex="1">
          <mxGeometry x="390" y="140" width="60" height="20" as="geometry" />
        </mxCell>
        <mxCell id="SXORoa-QBr3XHSVtzo8y-29" value="TopN" style="rounded=1;whiteSpace=wrap;html=1;" parent="1" vertex="1">
          <mxGeometry x="390" y="170" width="60" height="20" as="geometry" />
        </mxCell>
        <mxCell id="SXORoa-QBr3XHSVtzo8y-30" value="join" style="rounded=1;whiteSpace=wrap;html=1;" parent="1" vertex="1">
          <mxGeometry x="390" y="200" width="60" height="20" as="geometry" />
        </mxCell>
        <mxCell id="SXORoa-QBr3XHSVtzo8y-31" value="数据运算" style="rounded=1;whiteSpace=wrap;html=1;" parent="1" vertex="1">
          <mxGeometry x="390" y="230" width="60" height="20" as="geometry" />
        </mxCell>
        <mxCell id="SXORoa-QBr3XHSVtzo8y-32" value="sql查询" style="rounded=1;whiteSpace=wrap;html=1;" parent="1" vertex="1">
          <mxGeometry x="390" y="260" width="60" height="20" as="geometry" />
        </mxCell>
        <mxCell id="SXORoa-QBr3XHSVtzo8y-33" value="" style="shape=curlyBracket;whiteSpace=wrap;html=1;rounded=1;" parent="1" vertex="1">
          <mxGeometry x="360" y="305" width="20" height="70" as="geometry" />
        </mxCell>
        <mxCell id="SXORoa-QBr3XHSVtzo8y-34" value="mysql" style="rounded=1;whiteSpace=wrap;html=1;" parent="1" vertex="1">
          <mxGeometry x="390" y="300" width="60" height="20" as="geometry" />
        </mxCell>
        <mxCell id="SXORoa-QBr3XHSVtzo8y-35" value="kafka" style="rounded=1;whiteSpace=wrap;html=1;" parent="1" vertex="1">
          <mxGeometry x="390" y="330" width="60" height="20" as="geometry" />
        </mxCell>
        <mxCell id="SXORoa-QBr3XHSVtzo8y-36" value="clickhouse" style="rounded=1;whiteSpace=wrap;html=1;" parent="1" vertex="1">
          <mxGeometry x="390" y="360" width="60" height="20" as="geometry" />
        </mxCell>
        <mxCell id="SXORoa-QBr3XHSVtzo8y-48" value="" style="edgeStyle=orthogonalEdgeStyle;rounded=0;orthogonalLoop=1;jettySize=auto;html=1;" parent="1" source="SXORoa-QBr3XHSVtzo8y-37" target="SXORoa-QBr3XHSVtzo8y-7" edge="1">
          <mxGeometry relative="1" as="geometry" />
        </mxCell>
        <mxCell id="SXORoa-QBr3XHSVtzo8y-37" value="DODB pipeline" style="rounded=1;whiteSpace=wrap;html=1;" parent="1" vertex="1">
          <mxGeometry x="265" y="-20" width="120" height="20" as="geometry" />
        </mxCell>
        <mxCell id="SXORoa-QBr3XHSVtzo8y-52" value="" style="edgeStyle=orthogonalEdgeStyle;rounded=0;orthogonalLoop=1;jettySize=auto;html=1;" parent="1" source="SXORoa-QBr3XHSVtzo8y-49" target="SXORoa-QBr3XHSVtzo8y-37" edge="1">
          <mxGeometry relative="1" as="geometry" />
        </mxCell>
        <mxCell id="SXORoa-QBr3XHSVtzo8y-53" value="Y" style="edgeLabel;html=1;align=center;verticalAlign=middle;resizable=0;points=[];" parent="SXORoa-QBr3XHSVtzo8y-52" vertex="1" connectable="0">
          <mxGeometry x="-0.1596" y="3" relative="1" as="geometry">
            <mxPoint as="offset" />
          </mxGeometry>
        </mxCell>
        <mxCell id="SXORoa-QBr3XHSVtzo8y-49" value="数据预处理" style="html=1;whiteSpace=wrap;aspect=fixed;shape=isoRectangle;" parent="1" vertex="1">
          <mxGeometry x="139.99999999999997" y="-35" width="83.33" height="50" as="geometry" />
        </mxCell>
        <mxCell id="SXORoa-QBr3XHSVtzo8y-65" style="edgeStyle=orthogonalEdgeStyle;rounded=0;orthogonalLoop=1;jettySize=auto;html=1;entryX=0.1;entryY=0.5;entryDx=0;entryDy=0;entryPerimeter=0;" parent="1" source="SXORoa-QBr3XHSVtzo8y-54" target="SXORoa-QBr3XHSVtzo8y-64" edge="1">
          <mxGeometry relative="1" as="geometry">
            <Array as="points">
              <mxPoint x="210" y="455" />
            </Array>
          </mxGeometry>
        </mxCell>
        <mxCell id="SXORoa-QBr3XHSVtzo8y-71" value="卡中心" style="edgeLabel;html=1;align=center;verticalAlign=middle;resizable=0;points=[];" parent="SXORoa-QBr3XHSVtzo8y-65" vertex="1" connectable="0">
          <mxGeometry x="0.1035" y="3" relative="1" as="geometry">
            <mxPoint as="offset" />
          </mxGeometry>
        </mxCell>
        <mxCell id="SXORoa-QBr3XHSVtzo8y-54" value="flink集群" style="rounded=1;whiteSpace=wrap;html=1;" parent="1" vertex="1">
          <mxGeometry x="170" y="385" width="80" height="30" as="geometry" />
        </mxCell>
        <mxCell id="SXORoa-QBr3XHSVtzo8y-57" value="on-yarn" style="rounded=1;whiteSpace=wrap;html=1;" parent="1" vertex="1">
          <mxGeometry x="40" y="330" width="80" height="30" as="geometry" />
        </mxCell>
        <mxCell id="SXORoa-QBr3XHSVtzo8y-59" value="" style="shape=curlyBracket;whiteSpace=wrap;html=1;rounded=1;flipH=1;" parent="1" vertex="1">
          <mxGeometry x="140" y="340" width="20" height="120" as="geometry" />
        </mxCell>
        <mxCell id="SXORoa-QBr3XHSVtzo8y-60" value="standalone" style="rounded=1;whiteSpace=wrap;html=1;" parent="1" vertex="1">
          <mxGeometry x="40" y="385" width="80" height="30" as="geometry" />
        </mxCell>
        <mxCell id="SXORoa-QBr3XHSVtzo8y-61" value="on k8s" style="rounded=1;whiteSpace=wrap;html=1;" parent="1" vertex="1">
          <mxGeometry x="40" y="440" width="80" height="30" as="geometry" />
        </mxCell>
        <mxCell id="SXORoa-QBr3XHSVtzo8y-64" value="" style="shape=curlyBracket;whiteSpace=wrap;html=1;rounded=1;" parent="1" vertex="1">
          <mxGeometry x="300" y="412.5" width="20" height="85" as="geometry" />
        </mxCell>
        <mxCell id="SXORoa-QBr3XHSVtzo8y-67" value="onsight" style="rounded=1;whiteSpace=wrap;html=1;" parent="1" vertex="1">
          <mxGeometry x="330" y="400" width="80" height="30" as="geometry" />
        </mxCell>
        <mxCell id="SXORoa-QBr3XHSVtzo8y-68" value="蓝信" style="rounded=1;whiteSpace=wrap;html=1;" parent="1" vertex="1">
          <mxGeometry x="330" y="480" width="80" height="30" as="geometry" />
        </mxCell>
        <mxCell id="SXORoa-QBr3XHSVtzo8y-69" value="监控数据结果" style="text;html=1;align=center;verticalAlign=middle;resizable=0;points=[];autosize=1;strokeColor=none;" parent="1" vertex="1">
          <mxGeometry x="420" y="405" width="90" height="20" as="geometry" />
        </mxCell>
        <mxCell id="SXORoa-QBr3XHSVtzo8y-70" value="实时告警通知" style="text;html=1;align=center;verticalAlign=middle;resizable=0;points=[];autosize=1;strokeColor=none;" parent="1" vertex="1">
          <mxGeometry x="420" y="485" width="90" height="20" as="geometry" />
        </mxCell>
      </root>
    </mxGraphModel>
  </diagram>
</mxfile>
